<svg                                    
                                    width="24"
                                    height="24"
                                    viewBox="0 0 47 47"
                                    fill="none"
                                    xmlns="http://www.w3.org/2000/svg"
                                >
                                    <g clip-path="url(#clip0)">
                                        <path
                                            d="M23.422 43.0183H5.85545C4.77803 43.0183 3.90366 42.1439 3.90366 41.0666V5.9336C3.90366 4.85618 4.77812 3.98182 5.85545 3.98182H23.422C24.5013 3.98182 25.3738 3.10938 25.3738 2.03003C25.3738 0.950685 24.5013 0.078064 23.422 0.078064H5.85545C2.62713 0.078064 0 2.70529 0 5.9336V41.0665C0 44.2948 2.62713 46.9219 5.85545 46.9219H23.422C24.5013 46.9219 25.3738 46.0495 25.3738 44.9701C25.3738 43.8908 24.5013 43.0183 23.422 43.0183Z"
                                            fill="white"
                                        />
                                        <path
                                            d="M46.4183 22.1103L34.5512 10.3993C33.7861 9.64197 32.5487 9.65179 31.7913 10.4188C31.034 11.1859 31.0418 12.4214 31.8109 13.1787L40.2915 21.5481H17.5664C16.4871 21.5481 15.6146 22.4205 15.6146 23.4999C15.6146 24.5792 16.4871 25.4518 17.5664 25.4518H40.2915L31.8109 33.8212C31.0419 34.5785 31.036 35.814 31.7913 36.581C32.1739 36.9675 32.6775 37.1627 33.1811 37.1627C33.6769 37.1627 34.1726 36.9753 34.5512 36.6005L46.4183 24.8895C46.7892 24.5226 47 24.0229 47 23.4998C47 22.9769 46.7911 22.4792 46.4183 22.1103Z"
                                            fill="white"
                                        />
                                    </g>
                                    <defs>
                                        <clipPath id="clip0">
                                            <rect
                                                width="47"
                                                height="47"
                                                fill="white"
                                            />
                                        </clipPath>
                                    </defs>
                                </svg>